<svg width="548" height="129" viewBox="0 0 548 129" fill="none" xmlns="http://www.w3.org/2000/svg">
<g clip-path="url(#clip0_108_14)">
<path d="M197.043 3.02417C202.468 3.15767 208.475 3.03827 213.938 3.03153C214.091 8.09283 213.483 40.6648 214.913 42.7483C216.374 42.5221 217.953 38.6056 219.302 37.3833C228.72 28.8535 244.119 28.5468 253.041 37.9868C261.687 47.1351 261.338 57.7297 261.09 69.4802C260.961 75.6208 258.786 85.0212 254.281 89.3181C253.695 91.3575 250.887 92.9237 249.089 93.9736C240.305 99.1015 228.636 98.6778 220.618 92.23C218.947 90.8862 216.495 86.2382 214.687 85.7238C214.039 86.7785 213.919 94.0994 213.501 96.392C208.185 96.2565 202.405 96.3406 197.055 96.3293C196.765 84.6977 197.013 71.9703 197.012 60.2669L197.043 3.02417ZM231.635 83.1935C236.547 81.5818 239.01 80.1259 241.374 75.3623C246.724 64.579 243.196 42.4796 227.031 45.305C213.586 47.5906 214.218 61.1303 215.27 71.8164C216.047 79.7105 224.341 84.2515 231.635 83.1935Z" fill="white"/>
<path d="M296.564 31.2665C314.697 28.6153 331.552 41.1462 334.254 59.283C336.952 77.4198 324.478 94.3229 306.361 97.0749C288.171 99.8377 271.199 87.2937 268.489 69.0854C265.778 50.8774 278.361 33.9281 296.564 31.2665ZM304.59 82.6633C321.999 78.4909 319.043 41.4034 299.263 45.5807C295.692 46.1719 293.007 46.9785 290.843 50.0788C287.048 55.5222 286.556 63.4603 287.302 69.9322C288.35 79.0307 295.053 84.2716 303.994 82.7688C304.192 82.7353 304.392 82.7 304.59 82.6633Z" fill="white"/>
<path d="M500.014 31.9741C505.855 31.8055 511.859 32.0493 517.842 31.8729C517.703 40.4675 517.81 49.3281 517.807 57.943L517.794 96.4332C512.867 96.2354 507.208 96.5841 502.354 96.234C499.607 96.036 501.479 87.4064 500.075 85.2602C499.118 85.1547 498.275 86.7785 497.762 87.5908C488.077 102.904 461.971 100.113 457.392 81.8422C456.972 80.1529 456.71 78.4288 456.608 76.6913C456.076 68.1647 455.688 42.1659 456.376 32.1952C456.384 32.0849 456.937 32.015 457.141 31.9738C462.613 32.0121 468.088 31.9888 473.56 31.9042C473.298 35.2058 473.474 40.4255 473.501 43.7926L473.632 62.8942C473.672 67.8021 473.554 76.9343 477.36 80.0898C486.579 87.7347 500.169 80.3729 499.957 68.5285C499.888 64.5742 500.096 60.1049 500.102 56.2435C500.153 48.1537 500.123 40.0634 500.014 31.9741Z" fill="white"/>
<path d="M340.614 31.9791C344.984 31.9443 349.351 31.9542 353.722 32.0091C355.481 34.0187 358.188 38.5519 359.745 40.9606C362.264 44.8585 364.409 47.7912 367.306 51.4153C371.007 45.7039 376.453 37.5636 380.344 32.1445C385.016 31.6817 395.099 31.9662 400.034 32.0594C398.9 34.4547 396.469 37.7362 394.947 40.0271C390.012 47.4511 383.808 55.0985 379.512 62.877C383.586 70.8729 392.013 80.5658 397.063 88.3831C398.718 90.9436 400.729 93.2367 402.16 96.0308C399.595 96.4882 394.516 96.3482 391.775 96.3397C388.563 96.3707 385.348 96.367 382.136 96.3287C378.999 92.6436 369.512 76.5721 366.61 75.3844C363.724 76.4439 354.302 93.0965 349.712 96.406C343.893 96.3311 337.054 96.4331 331.338 96.0436C333.224 92.3677 339.231 84.8223 341.785 81.3347C346.105 75.4427 350.392 69.312 354.802 63.5156C348.482 53.9198 342.213 44.9168 335.508 35.5694C335 34.8607 333.759 33.09 333.927 32.2382C335.171 31.9132 339.127 31.9887 340.614 31.9791Z" fill="white"/>
<path d="M438.676 1.16295C454.37 0.101786 451.987 0.81133 452 15.3115C435.57 15.0187 435.185 15.5585 433.361 31.9506C438.844 32.0177 444.327 31.9995 449.81 31.8954C449.914 36.4436 449.855 41.2113 449.866 45.7766L433.575 45.7793C433.773 51.4007 433.607 57.7575 433.605 63.445L433.589 96.415L429.729 96.3435C425.124 96.3593 420.515 96.3515 415.91 96.3205L415.904 45.7728L398.742 45.6762C399.772 42.7908 405.824 34.4893 407.921 32.1034C410.058 31.866 413.671 31.9286 415.899 31.9118C415.827 14.9043 420.154 3.81636 438.676 1.16295Z" fill="white"/>
<path d="M25.8442 43.7308C27.5039 40.8208 29.2734 37.9981 31.1852 35.2422C38.3684 24.8863 45.2714 14.3585 52.2752 3.88574C52.8096 3.08648 53.7679 1.92419 54.5441 1.38041C58.0247 0.938159 62.3254 1.07275 65.9074 1.07141L82.5088 1.06744L109.462 1.06928C114.236 1.07031 121.747 0.70127 126.196 1.57283C127.016 1.73359 135.613 14.4334 136.274 15.8156L89.3235 15.8155C82.8562 15.8155 70.7269 15.4421 64.7568 16.0453C62.1128 19.8764 56.6981 27.5723 54.5919 31.4148C57.1747 35.4826 59.8648 39.3287 62.5549 43.3176C66.0053 40.1188 69.1781 31.2432 72.6962 29.1864C74.9487 27.8697 135.71 28.9343 144.407 28.6726C146.551 30.6839 152.94 40.8205 154.875 43.7688C152.234 47.8411 149.392 51.7762 146.729 55.8332C140.201 65.7764 133.774 75.585 126.973 85.3501C120.171 85.5899 112.893 85.363 106.055 85.4098C89.0817 85.526 71.9468 85.1582 54.9891 85.557C51.5149 90.7623 47.8224 96.3467 41.2527 97.8174C32.964 99.6729 29.0097 94.7591 21.9798 94.8068C16.1419 94.8461 9.64306 103.326 4.9551 105.549C4.40082 105.812 0.981878 103.543 0 102.923V101.478C2.02114 99.2621 12.0861 78.1765 14.4321 78.8158C20.6465 80.5097 31.8399 89.8421 38.8285 89.6706C42.1524 89.5889 46.8957 81.0771 49.4063 78.6049C44.8373 71.4618 39.633 64.0271 34.9525 56.9081C32.3825 52.9987 28.6157 47.1635 25.8442 43.7308Z" fill="white"/>
<path d="M547.746 3.03856V96.4061C542.106 96.3194 536.462 96.3076 530.819 96.3713C530.033 72.8385 531.172 48.693 530.704 25.104C530.562 17.9799 530.568 10.244 530.824 3.1386C536.026 2.88303 542.443 3.04078 547.746 3.03856Z" fill="white"/>
<path d="M94.4041 90.6429C96.5052 90.5077 104.555 89.7768 105.793 90.9212C109.289 94.1526 111.145 102.058 111.261 106.599C111.564 118.542 121.902 118.765 130.492 122.619C131.49 123.067 130.817 127.862 130.708 129H102.967C102.864 122.323 103.541 104.08 101.004 99.0054C99.4301 95.8567 96.5423 93.4043 94.4041 90.6429Z" fill="white"/>
</g>
<defs>
<clipPath id="clip0_108_14">
<rect width="547.746" height="129" fill="white"/>
</clipPath>
</defs>
</svg>
