<svg width="393" height="156" viewBox="0 0 393 156" fill="none" xmlns="http://www.w3.org/2000/svg">
<g clip-path="url(#clip0_130_2)">
<path d="M0.401367 60.5523V120.904H24.9832C51.0086 120.904 55.8608 120.663 63.3596 118.899C78.1167 115.41 89.3049 108.352 97.7661 97.1243C100.012 94.1568 104.463 85.495 105.826 81.3646C108.032 74.7079 108.473 71.2191 108.433 60.3518C108.433 51.3692 108.313 49.6449 107.551 46.1962C103.701 28.8727 93.8764 15.6795 78.9589 7.85984C74.1869 5.33349 70.7783 4.09036 64.8835 2.56653C56.342 0.441188 52.4923 0.200583 25.1837 0.200583H0.401367V60.5523ZM49.3244 25.4641C64.8033 27.3488 74.0666 35.4091 78.0766 50.3266C78.6381 52.3718 78.7985 54.5773 78.7985 60.5523C78.7985 67.2492 78.6782 68.5725 77.8761 71.58C74.6681 83.49 66.8885 91.2294 55.139 94.1568C50.8482 95.2395 45.2742 95.6806 37.4946 95.5603L29.8755 95.44L29.7552 60.7528C29.7151 41.6648 29.7552 25.825 29.8755 25.5443C30.1161 24.9428 44.3118 24.8626 49.3244 25.4641Z" fill="white"/>
<path d="M289.929 1.0828C289.287 2.76704 286.841 9.50397 282.309 22.0555C279.863 28.8727 276.896 37.1735 275.693 40.5019C270.48 54.8179 266.229 66.4872 264.625 70.9785C263.663 73.6252 262.7 75.951 262.5 76.1114C261.778 76.6327 257.567 76.0713 255.482 75.149C252.875 74.0663 252.113 73.1841 244.935 63.1589C241.527 58.427 235.151 49.5647 230.78 43.5095C226.409 37.4542 218.509 26.4666 213.216 19.1282C207.922 11.7897 203.03 5.33349 202.268 4.77208C196.173 0.080281 187.11 2.12542 183.782 8.94256L182.659 11.2283L182.539 35.6096C182.498 49.8053 182.298 59.9508 182.057 59.8706C181.857 59.7904 178.889 56.061 175.481 51.5296C165.897 38.938 161.766 33.5244 155.631 25.4641C152.503 21.3738 147.851 15.2785 145.285 11.91C142.718 8.50145 140.032 5.29339 139.31 4.77208C133.215 0.080281 124.152 2.16552 120.823 8.94256L119.701 11.2283L119.58 65.6451L119.5 120.102H131.731H143.962L144.042 85.5351L144.162 50.9281L158.358 69.575C183.702 102.778 186.388 106.227 187.832 107.149C194.489 111.4 203.391 108.593 206.078 101.455C206.88 99.2897 206.92 98.4877 206.92 76.1916C206.92 63.5198 207.04 53.1337 207.241 53.1337C207.401 53.1337 207.802 53.5748 208.163 54.056C208.524 54.5372 210.93 57.9057 213.577 61.5548C216.183 65.204 220.193 70.778 222.519 73.9861C224.805 77.1942 227.973 81.5651 229.537 83.7707C233.066 88.7031 236.514 92.1919 240.364 94.7583C243.492 96.8436 248.384 98.9288 251.833 99.6907C252.916 99.9313 253.838 100.252 253.838 100.453C253.838 100.653 253.076 102.819 252.194 105.345C251.271 107.831 249.748 112.042 248.825 114.688C247.863 117.335 246.981 119.821 246.82 120.222C246.539 120.864 247.342 120.904 261.898 120.824L277.297 120.704L280.585 110.919C282.43 105.505 284.154 100.974 284.395 100.773C284.675 100.613 294.861 100.453 307.012 100.453C324.054 100.453 329.227 100.573 329.709 100.934C330.029 101.215 331.072 103.661 331.994 106.388C332.877 109.074 334.4 113.445 335.283 116.092L336.927 120.904H352.325C360.787 120.904 367.724 120.744 367.724 120.543C367.724 120.383 367.002 118.257 366.08 115.851C365.158 113.445 363.473 108.754 362.311 105.465C361.107 102.137 358.421 94.6781 356.295 88.8234C354.17 82.9687 351.604 75.951 350.601 73.1841C347.914 65.605 340.496 45.1937 339.654 42.908C339.212 41.7851 336.967 35.5695 334.641 29.0732C327.864 10.1857 325.217 2.88734 324.616 1.48381L324.014 0.200583H307.172H290.33L289.929 1.0828ZM311.583 45.715C319.764 69.976 321.648 75.7104 321.448 75.9109C321.327 76.0312 314.911 76.1916 307.172 76.3119C294.821 76.4723 293.137 76.4322 292.936 75.8708C292.776 75.55 295.863 65.8456 299.713 54.2966C303.603 42.7877 306.771 33.2437 306.771 33.1234C306.771 31.9604 308.174 35.6096 311.583 45.715Z" fill="white"/>
<path d="M368.285 76.5527C368.205 76.7933 368.165 82.3272 368.205 88.8236L368.325 100.653L380.355 100.533L392.386 100.453L392.506 88.4627L392.586 76.4725L391.544 76.2319C389.619 75.7507 368.486 76.0314 368.285 76.5527Z" fill="white"/>
<path d="M147.691 139.551C145.606 140.433 145.165 142.117 146.167 145.245C146.368 145.887 146.247 146.167 145.566 146.368C143.641 146.969 142.518 150.779 143.601 153.105C144.804 155.792 150.097 156.393 153.185 154.188L154.268 153.426L155.19 154.388C155.912 155.15 156.553 155.391 157.756 155.391H159.36L157.676 153.666C156.754 152.744 155.992 151.701 155.992 151.421C155.992 151.14 156.433 150.137 156.994 149.215C158.077 147.37 157.997 146.969 156.553 146.969C155.952 146.969 155.39 147.41 154.909 148.172C154.548 148.814 153.987 149.375 153.746 149.375C153.466 149.375 152.062 148.092 150.578 146.488C147.691 143.36 147.29 141.957 149.095 141.315C149.816 141.034 150.217 141.155 150.939 141.957C151.862 142.959 153.345 143.28 153.746 142.598C154.268 141.796 153.145 140.112 151.781 139.551C150.097 138.829 149.335 138.829 147.691 139.551ZM150.257 149.456C151.42 150.619 152.383 151.701 152.383 151.862C152.383 152.423 150.017 153.385 148.573 153.385C145.726 153.385 144.523 150.298 146.608 148.373C147.21 147.811 147.771 147.37 147.932 147.37C148.052 147.37 149.095 148.293 150.257 149.456Z" fill="white"/>
<path d="M-0.000732422 147.37V155.39H1.20229H2.40532V152.182V148.974H3.52814C4.45046 149.014 4.85147 149.455 6.4154 152.102C8.01943 154.829 8.38034 155.19 9.54326 155.31C11.2275 155.47 11.1874 155.029 9.22245 151.941C7.37782 149.014 7.33771 148.733 8.42044 148.372C9.86407 147.931 10.8265 146.207 10.8265 144.122C10.8265 142.558 10.626 141.996 9.66356 141.034C8.26003 139.671 7.01691 139.35 2.96673 139.35H-0.000732422V147.37ZM7.61842 142.357C8.66104 143.32 8.62094 144.884 7.53822 146.047C6.85651 146.768 6.25499 146.969 4.53066 146.969H2.40532V144.443C2.40532 143.039 2.52562 141.756 2.72612 141.595C3.24743 141.034 6.7763 141.595 7.61842 142.357Z" fill="white"/>
<path d="M17.1229 139.631C16.9625 139.751 16.8422 143.36 16.8422 147.651V155.391H21.0126C24.4212 155.391 25.2232 155.27 25.4237 154.749C25.9049 153.546 25.6643 153.426 22.5766 153.305L19.4487 153.185V150.779V148.373L22.0553 148.172C24.341 148.012 24.6618 147.852 24.6618 147.17C24.6618 146.448 24.341 146.368 21.935 146.248L19.2081 146.127L19.3284 143.842L19.4487 141.556L22.3761 141.436C25.143 141.315 25.2633 141.275 25.2633 140.353C25.2633 139.35 25.2232 139.35 21.3335 139.35C19.168 139.35 17.2432 139.471 17.1229 139.631Z" fill="white"/>
<path d="M33.4434 139.752C32.0399 140.313 30.877 142.118 30.877 143.762C30.877 146.008 32.0399 147.211 35.2479 148.173C39.1377 149.336 40.2605 150.82 38.4961 152.584C37.2931 153.787 35.4484 153.627 34.085 152.183C32.8018 150.82 30.877 150.499 30.877 151.702C30.877 154.509 36.1302 156.434 39.2981 154.79C40.9423 153.948 41.7042 152.664 41.7042 150.659C41.7042 148.414 40.6615 147.451 36.9322 146.248C33.9647 145.286 33.0424 144.404 33.4835 142.96C33.6439 142.519 34.1251 141.957 34.5662 141.717C35.689 141.115 37.9748 141.637 38.4961 142.559C38.8169 143.12 39.3382 143.361 40.3006 143.361C41.8646 143.361 41.8646 143.401 41.3032 141.997C40.5011 139.832 36.2104 138.629 33.4434 139.752Z" fill="white"/>
<path d="M47.5191 139.832C47.3988 140.152 47.3587 143.721 47.3988 147.772L47.5191 155.19H51.7297C55.7799 155.19 55.9403 155.15 56.0606 154.268C56.1809 153.426 56.0606 153.386 53.2134 153.386H50.2059L50.0455 150.939C50.0054 149.616 50.0054 148.413 50.0856 148.333C50.1658 148.253 51.4089 148.173 52.8124 148.173C55.2586 148.173 55.3388 148.132 55.3388 147.17C55.3388 146.208 55.2586 146.168 52.7723 146.168H50.246L50.0054 144.122C49.845 142.959 49.845 141.877 49.9653 141.716C50.0856 141.516 51.5292 141.355 53.1733 141.355C56.0606 141.355 56.1809 141.315 56.0606 140.433C55.9403 139.591 55.7398 139.551 51.8099 139.431C48.7222 139.35 47.6394 139.431 47.5191 139.832Z" fill="white"/>
<path d="M66.1255 140.433C65.2032 142.799 60.9525 154.95 60.9525 155.19C60.9525 155.351 61.5139 155.391 62.2357 155.31C63.2784 155.23 63.5591 154.95 63.9601 153.787L64.4413 152.383L67.8499 152.263L71.2985 152.142L71.9401 153.787C72.5015 155.15 72.7422 155.391 73.7848 155.391C74.4264 155.391 74.9878 155.23 74.9878 154.99C74.9878 154.789 74.1056 152.223 73.0229 149.295C71.9401 146.368 70.697 142.959 70.2559 141.756C69.5341 139.671 69.3737 139.551 68.0103 139.43C66.727 139.31 66.5265 139.43 66.1255 140.433ZM69.494 146.649C70.0554 148.333 70.4163 149.817 70.2559 149.937C69.9351 150.298 65.8448 150.218 65.6042 149.857C65.4839 149.656 65.8448 148.293 66.4062 146.729C66.9275 145.205 67.4889 143.721 67.6092 143.4C67.9301 142.478 68.3712 143.32 69.494 146.649Z" fill="white"/>
<path d="M80.5215 139.591C80.321 139.751 80.2007 143.4 80.2007 147.651V155.431L81.3235 155.31C82.4062 155.19 82.4062 155.15 82.5265 152.062L82.6468 148.934L83.7296 149.055C84.5717 149.135 85.093 149.696 86.2158 151.661C87.0178 153.025 87.9 154.388 88.1807 154.749C88.7021 155.35 91.0279 155.671 91.0279 155.15C91.0279 154.99 90.3061 153.626 89.4239 152.102C88.5417 150.538 87.8198 149.135 87.8198 148.974C87.8198 148.774 88.1807 148.493 88.662 148.373C89.1031 148.213 89.8249 147.531 90.266 146.849C91.7096 144.443 90.9878 141.235 88.7422 140.152C87.499 139.551 80.9626 139.11 80.5215 139.591ZM87.8198 142.358C88.8625 143.32 88.8224 144.884 87.7396 146.047C87.0579 146.769 86.4564 146.969 84.7321 146.969H82.6067V144.443C82.6067 143.04 82.727 141.756 82.9275 141.596C83.4488 141.034 86.9777 141.596 87.8198 142.358Z" fill="white"/>
<path d="M100.211 140.273C96.2813 142.358 94.8777 147.571 97.1635 151.501C97.765 152.503 98.8878 153.706 99.6497 154.188C101.374 155.27 104.863 155.671 106.828 154.99C108.552 154.428 111.078 152.383 111.078 151.541C111.078 150.578 108.592 150.859 107.55 151.982C105.665 153.947 102.016 153.626 100.091 151.34C97.4442 148.212 98.7675 142.999 102.457 141.756C104.261 141.155 106.387 141.596 107.509 142.799C108.552 143.882 111.078 144.162 111.078 143.2C111.078 142.358 108.031 139.872 106.587 139.591C104.181 139.11 101.976 139.35 100.211 140.273Z" fill="white"/>
<path d="M117.375 139.591C117.214 139.751 117.094 143.36 117.094 147.651V155.391H118.297H119.5V151.982V148.573H123.31H127.079L127.199 151.862C127.32 155.15 127.32 155.19 128.443 155.31L129.525 155.431V147.37V139.31L128.443 139.43C127.32 139.551 127.32 139.591 127.199 142.839L127.079 146.167H123.31H119.54L119.42 142.839C119.3 139.872 119.219 139.551 118.498 139.43C118.016 139.35 117.535 139.43 117.375 139.591Z" fill="white"/>
<path d="M172.353 139.591C172.152 139.751 172.032 143.401 172.032 147.691V155.511L176.162 155.31C178.849 155.19 180.694 154.909 181.496 154.468C184.543 152.864 186.147 149.055 185.265 145.365C184.303 141.315 181.857 139.751 176.242 139.431C174.278 139.35 172.513 139.39 172.353 139.591ZM180.694 142.438C182.137 143.36 182.859 145.045 182.859 147.451C182.859 151.3 180.613 153.386 176.483 153.386H174.438V147.611C174.438 143.36 174.558 141.756 174.959 141.596C175.841 141.195 179.651 141.756 180.694 142.438Z" fill="white"/>
<path d="M195.41 139.832C194.849 140.553 190.077 153.907 190.077 154.709C190.077 155.19 190.398 155.391 191.12 155.391C191.962 155.391 192.282 155.07 192.764 153.787L193.405 152.183H196.894C200.383 152.183 200.423 152.183 200.704 153.265C200.864 153.907 201.145 154.629 201.385 154.869C201.947 155.551 203.711 155.551 203.711 154.829C203.711 154.228 199.14 141.315 198.498 140.112C198.017 139.23 196.012 139.07 195.41 139.832ZM198.298 146.568C198.859 148.172 199.3 149.656 199.3 149.857C199.3 150.017 198.217 150.178 196.894 150.178C195.25 150.178 194.488 150.017 194.488 149.696C194.488 148.573 196.653 142.959 196.934 143.24C197.135 143.441 197.736 144.924 198.298 146.568Z" fill="white"/>
<path d="M208.403 139.631C208.243 139.751 208.123 140.192 208.123 140.593C208.123 141.155 208.604 141.355 210.328 141.556L212.534 141.837V148.614V155.391H213.737H214.94V148.573V141.756L216.063 141.676C216.664 141.676 217.426 141.636 217.827 141.676C218.669 141.756 219.511 140.714 219.19 139.952C219.03 139.471 218.068 139.35 213.817 139.35C210.97 139.35 208.524 139.471 208.403 139.631Z" fill="white"/>
<path d="M229.055 139.831C228.814 140.112 228.093 141.877 227.451 143.761C226.769 145.646 225.606 148.894 224.844 151.02C224.042 153.145 223.521 155.03 223.641 155.15C223.802 155.27 224.323 155.391 224.844 155.391C225.606 155.391 225.967 155.03 226.448 153.787L227.09 152.182H230.579C234.068 152.182 234.108 152.182 234.388 153.265C234.549 153.907 234.83 154.629 235.07 154.869C235.551 155.471 237.396 155.591 237.396 155.03C237.396 154.629 233.346 142.959 232.424 140.834C231.942 139.591 231.621 139.35 230.659 139.35C230.017 139.35 229.296 139.591 229.055 139.831ZM231.942 146.488C232.504 148.132 232.905 149.616 232.744 149.817C232.424 150.378 228.173 150.258 228.173 149.696C228.173 148.614 230.298 142.919 230.579 143.24C230.739 143.4 231.341 144.884 231.942 146.488Z" fill="white"/>
<path d="M255.521 140.032C255.281 140.433 254.559 142.478 253.837 144.563C253.115 146.649 252.033 149.736 251.391 151.381C249.947 155.11 249.947 155.391 251.351 155.391C252.514 155.391 253.436 154.188 253.436 152.784C253.436 152.303 254.158 152.183 256.965 152.183H260.534L261.176 153.787C261.697 155.19 261.978 155.391 263.02 155.391C263.702 155.391 264.263 155.31 264.263 155.19C264.263 155.11 263.903 154.067 263.421 152.904C262.98 151.741 261.777 148.453 260.815 145.606C259.852 142.759 258.85 140.192 258.609 139.872C257.968 139.11 255.922 139.23 255.521 140.032ZM258.409 145.927C259.892 150.137 259.892 150.178 257.286 150.178C256.083 150.178 255 150.017 254.88 149.817C254.639 149.416 256.724 142.959 257.085 142.959C257.246 142.959 257.807 144.283 258.409 145.927Z" fill="white"/>
<path d="M269.236 139.872C269.156 140.152 269.116 143.721 269.156 147.771L269.276 155.19H270.479H271.682L271.883 149.576L272.083 143.962L275.893 149.576C279.382 154.709 279.823 155.19 281.026 155.31L282.309 155.431L282.229 147.491L282.108 139.551L281.026 139.43L279.903 139.31V144.724C279.903 147.691 279.742 150.218 279.542 150.338C279.341 150.458 277.697 148.293 275.853 145.486C274.008 142.679 272.244 140.192 271.963 139.872C271.281 139.19 269.517 139.19 269.236 139.872Z" fill="white"/>
<path d="M292.855 139.832C292.655 140.112 292.174 141.235 291.853 142.358C291.492 143.441 290.369 146.568 289.367 149.295C288.364 152.022 287.522 154.468 287.522 154.789C287.522 155.19 287.923 155.391 288.725 155.391C289.728 155.391 289.968 155.19 290.369 153.787L290.85 152.183H294.339H297.828L298.469 153.787C298.951 155.03 299.312 155.391 300.074 155.391C300.595 155.391 301.116 155.27 301.236 155.15C301.357 155.03 301.036 153.827 300.555 152.463C300.033 151.1 298.75 147.571 297.708 144.644L295.863 139.35H294.54C293.818 139.35 293.056 139.591 292.855 139.832ZM295.703 146.087C296.264 147.771 296.745 149.416 296.745 149.696C296.745 150.258 292.535 150.378 292.174 149.817C291.893 149.376 293.978 142.959 294.379 142.959C294.54 142.959 295.141 144.363 295.703 146.087Z" fill="white"/>
<path d="M306.57 139.831C306.449 140.152 306.409 143.721 306.449 147.771L306.57 155.19L310.5 155.31L314.389 155.431V154.388C314.389 153.426 314.309 153.386 311.783 153.386H309.176L309.096 146.448L308.976 139.551L307.853 139.43C307.211 139.35 306.69 139.511 306.57 139.831Z" fill="white"/>
<path d="M317.998 139.791C317.998 140.032 319.041 142.157 320.324 144.523C322.449 148.453 322.61 149.015 322.81 151.982C323.011 155.11 323.051 155.19 324.134 155.31L325.216 155.431V152.744C325.216 150.177 325.377 149.776 327.823 145.085C329.267 142.358 330.43 139.952 330.43 139.751C330.43 139.511 329.868 139.35 329.186 139.35C328.023 139.35 327.863 139.551 326.179 143.16C325.176 145.245 324.294 146.969 324.214 146.969C324.134 146.969 323.251 145.245 322.249 143.16C320.565 139.551 320.404 139.35 319.241 139.35C318.56 139.35 317.998 139.551 317.998 139.791Z" fill="white"/>
<path d="M334.721 139.591C334.199 140.112 334.44 141.275 335.082 141.516C335.443 141.636 336.365 141.756 337.167 141.756H338.651V148.453V155.19L339.934 155.31L341.257 155.431L341.337 148.493L341.458 141.556L343.463 141.355C345.147 141.195 345.468 141.034 345.468 140.353C345.468 139.591 345.147 139.551 340.215 139.43C337.367 139.39 334.881 139.471 334.721 139.591Z" fill="white"/>
<path d="M350.761 139.631C350.6 139.751 350.48 143.36 350.48 147.651V155.391H351.684H352.889V147.37V139.35H351.966C351.443 139.35 350.881 139.471 350.761 139.631Z" fill="white"/>
<path d="M362.51 140.232C361.548 140.754 360.185 141.836 359.543 142.678C358.38 144.122 358.3 144.483 358.3 147.37C358.3 150.258 358.38 150.618 359.543 152.062C362.671 155.992 368.566 156.513 371.934 153.145C373.699 151.38 373.699 150.979 371.974 150.979C371.052 150.979 370.21 151.3 369.488 151.982C367.443 153.867 363.794 153.626 362.109 151.501C359.262 147.892 360.946 142.318 365.117 141.516C366.721 141.235 368.967 141.876 369.929 142.959C370.37 143.44 371.172 143.761 372.014 143.761C373.578 143.761 373.618 143.641 372.536 142.157C370.611 139.47 365.839 138.548 362.51 140.232Z" fill="white"/>
<path d="M381.038 139.951C379.474 140.633 378.391 142.879 378.752 144.563C379.153 146.327 380.356 147.29 383.404 148.212C386.852 149.255 387.855 150.378 386.812 151.982C385.609 153.826 382.521 153.826 381.679 151.982C381.318 151.22 380.917 150.979 379.875 150.979C378.391 150.979 378.271 151.34 379.233 153.024C381.078 156.112 387.374 156.192 389.018 153.105C389.298 152.543 389.539 151.34 389.539 150.458C389.459 148.373 388.376 147.41 385.128 146.408C383.845 146.007 382.441 145.365 382.08 145.044C381.078 144.202 381.198 142.718 382.241 141.997C383.524 141.074 384.847 141.195 386.01 142.357C386.612 142.959 387.454 143.36 388.176 143.36C389.699 143.36 389.74 142.558 388.216 140.874C387.253 139.751 386.812 139.591 384.727 139.47C383.203 139.39 381.88 139.55 381.038 139.951Z" fill="white"/>
</g>
<defs>
<clipPath id="clip0_130_2">
<rect width="392.787" height="155.792" fill="white"/>
</clipPath>
</defs>
</svg>
