<svg width="222" height="53" viewBox="0 0 222 53" fill="none" xmlns="http://www.w3.org/2000/svg">
<path d="M93.7567 5.3064L114.351 5.37019C117.739 5.37109 121.62 5.45623 124.977 5.27179C124.942 7.07675 125.054 8.87886 124.999 10.6517C124.654 11.2459 123.491 12.6959 122.994 13.3573L118.42 19.4126L102.966 39.9369C104.042 39.9892 105.235 39.9811 106.318 39.9535C112.452 39.7972 118.8 40.1656 124.912 39.8958C124.827 41.9887 124.886 44.6534 124.91 46.7548C124.48 46.8185 122.29 46.7765 121.774 46.7755L114.721 46.768L100.971 46.7666C98.331 46.7668 95.5378 46.8175 92.9153 46.7305C92.9093 45.0518 92.884 43.3289 92.9391 41.6551C93.4298 40.8018 95.4716 38.17 96.1358 37.279L103.1 28.0279L111.315 17.0734C112.585 15.3901 113.557 13.9857 114.925 12.3334C107.86 12.2228 100.711 12.4099 93.6432 12.2988C93.6826 10.3235 93.5332 7.15252 93.7567 5.3064Z" fill="#FEFEFE"/>
<path d="M140.394 14.9619C140.788 14.9523 141.182 14.9455 141.576 14.9412C145.404 14.9038 149.191 15.6447 152.026 18.4129C155.72 22.0193 154.926 27.3966 154.921 32.1626L154.945 46.7777C152.566 46.6753 149.616 46.9142 147.318 46.6932C147.324 45.4516 147.34 44.2102 147.366 42.9688C143.411 49.0958 132.317 49.17 128.416 42.721L128.398 42.6843C127.228 40.3577 126.817 37.7895 127.699 35.3757C130.442 27.8643 139.105 29.3215 145.132 27.0932C147.567 26.1933 147.347 22.8071 145.052 21.6991C143.135 20.7746 140.384 20.7017 138.432 21.6337C137.323 22.1741 136.411 23.8416 136.065 25.0081C133.649 24.7493 130.948 24.2645 128.502 23.9288C130.442 17.8116 134.119 15.3494 140.394 14.9619ZM136.663 40.7588C139.891 42.5944 144.354 41.8662 146.438 38.5769C147.518 36.8712 147.206 33.9211 147.303 31.884L147.179 31.7811C146.186 32.3867 146.098 32.4429 145.013 32.7944C142.182 33.7101 136.267 33.4479 135.392 37.0627C135.151 38.0225 135.304 39.0387 135.817 39.8847C136.025 40.2255 136.339 40.5278 136.663 40.7588Z" fill="#FEFEFE"/>
<path d="M13.4053 8.48405L33.0917 8.47879C36.7132 8.47643 40.3544 8.46826 43.9761 8.50179C45.1549 8.53879 46.0783 8.69353 46.9116 9.61345C48.2136 11.0261 48.2429 13.1947 46.8125 14.5395C42.1564 18.9169 37.7151 23.6337 32.9974 27.9393C34.4366 29.1454 37.3283 32.2062 38.7647 33.6236C40.3851 35.2203 41.9971 36.8256 43.6008 38.4392C44.8689 39.7005 47.2511 41.7712 47.8692 43.3813C48.611 45.3134 46.7972 47.6367 44.9186 48.1274C42.8101 48.6886 41.3976 47.3309 40.0702 46.0057C34.6864 40.6314 29.2496 35.307 23.9424 29.8596C23.1672 29.0639 23.244 27.3484 23.8493 26.4368C24.8193 25.2205 26.116 24.0718 27.2468 22.9641L34.5891 15.7776L16.3364 15.7765L11.2215 15.79C9.63025 15.7966 8.27798 16.0497 6.92969 15.0227C3.98311 12.7779 5.89316 8.55111 9.33308 8.47449C10.6813 8.44446 12.0539 8.48529 13.4053 8.48405Z" fill="#FEFEFE"/>
<path d="M190.248 15.2625C192.801 15.2735 195.479 15.325 198.022 15.2338C198.07 19.5728 198.082 23.9122 198.057 28.2516C198.055 30.603 197.953 33.1284 198.25 35.4379C198.704 38.3889 201.031 39.7842 203.762 39.6957C208.159 39.5531 209.868 36.6165 209.697 32.5145C209.632 30.9402 209.703 28.9452 209.7 27.3344L209.706 15.2795C211.335 15.4183 215.691 15.2699 217.509 15.2558C217.459 19.3496 217.495 23.5032 217.496 27.6013L217.489 39.9493C217.488 42.1032 217.428 44.6355 217.52 46.7579C215.31 46.7925 212.408 46.8105 210.231 46.733C210.136 45.0276 210.205 43.0508 210.185 41.3046C207.859 44.891 205.202 47.1782 200.617 47.1631C198.179 47.1552 195.643 46.5537 193.727 44.9483C189.448 41.3657 190.235 35.1123 190.236 30.0624L190.248 15.2625Z" fill="#FEFEFE"/>
<path d="M156.555 15.2567C159.022 15.1628 162.479 15.2641 165.062 15.2333C165.785 17.086 166.417 19.9396 167.027 21.9127C168.724 27.2251 170.355 32.5586 171.919 37.912C172.42 36.8604 173.251 33.5714 173.634 32.3215L177.362 20.4791C177.723 19.3216 178.558 16.3742 179.096 15.4479C179.465 15.114 186.086 15.2606 187.214 15.275C186.433 17.7698 185.751 19.7948 184.846 22.2376C182.966 28.2016 180.628 34.3673 178.609 40.3166C177.933 42.3105 177.203 44.8929 176.456 46.7621C174.039 46.9484 170.262 46.6579 167.619 46.775C167.013 45.7774 165.953 42.4639 165.507 41.2108L161.345 29.4381L158.507 21.3301C158.047 20.0399 156.729 16.4651 156.555 15.2567Z" fill="#FEFEFE"/>
</svg>
