<svg width="478" height="134" viewBox="0 0 478 134" fill="none" xmlns="http://www.w3.org/2000/svg">
<path d="M454.875 49.4875L442.047 97.3731L429.403 49.997L429.265 49.4875H408.934L396.106 97.3731L383.463 49.997L383.324 49.4875H364.429L385.223 118.955L385.362 119.464H406.202L419.169 71.6707L431.858 118.908L431.997 119.464H452.837L473.492 50.3675L473.77 49.4875H454.875Z" fill="black"/>
<path d="M356.833 57.5917C350.21 50.8766 341.087 47.3569 330.482 47.3569C319.877 47.3569 310.846 50.8766 304.223 57.5917C297.601 64.3067 294.081 73.6156 294.081 84.4521C294.081 95.2892 297.601 104.552 304.223 111.313C310.846 118.028 319.877 121.547 330.482 121.547C341.087 121.547 350.21 118.028 356.833 111.313C363.455 104.598 366.975 95.2892 366.975 84.4521C366.975 73.6156 363.455 64.3067 356.833 57.5917ZM348.311 84.4521C348.311 90.4728 346.598 95.6597 343.356 99.3179C340.161 102.977 335.669 104.922 330.435 104.922C325.202 104.922 320.756 102.977 317.607 99.3179C314.412 95.6131 312.744 90.4728 312.744 84.4061C312.744 78.3394 314.412 73.1984 317.607 69.4936C320.803 65.8348 325.249 63.8901 330.435 63.8901C335.622 63.8901 340.115 65.8348 343.356 69.4936C346.598 73.1984 348.311 78.3394 348.311 84.4061V84.4521Z" fill="black"/>
<path d="M283.478 103.301C281.997 103.301 280.978 103.023 280.375 102.42C279.773 101.818 279.542 100.846 279.542 99.3639V19.7085H261.434V105.107C261.434 110.247 262.684 113.813 265.186 116.128C267.686 118.398 271.391 119.417 276.856 119.417H292.185V103.254H283.478V103.301Z" fill="black"/>
<path d="M250.087 37.2605V19.7085H188.4V119.417H207.11V77.2731H250.087V59.7674H207.11V37.2605H250.087Z" fill="black"/>
<path d="M9.44747 1.41675C6.94668 1.41675 4.5385 2.38929 2.77868 4.14911C0.972537 5.90893 0 8.31714 0 10.7716V121.918C0 123.169 0.231556 124.373 0.694668 125.531C1.15778 126.689 1.85245 127.707 2.73236 128.588C3.61227 129.467 4.63112 130.162 5.7889 130.625C6.94668 131.088 8.15075 131.319 9.40121 131.319C11.902 131.319 14.3102 130.347 16.07 128.588C17.8298 126.828 18.8487 124.466 18.8487 121.965V10.7716C18.8487 8.27082 17.8761 5.90893 16.07 4.14911C14.3102 2.38929 11.902 1.41675 9.40121 1.41675H9.44747Z" fill="black"/>
<path d="M66.1264 22.6729C64.8762 22.6729 63.6725 22.9044 62.5143 23.3676C61.3566 23.8306 60.3376 24.5253 59.4579 25.4052C58.5782 26.2851 57.8833 27.304 57.4202 28.4618C56.957 29.6195 56.6792 30.8237 56.6792 32.0277V99.7811C56.6792 102.282 57.6517 104.644 59.4579 106.404C61.218 108.163 63.6259 109.136 66.1264 109.136C68.6276 109.136 71.0355 108.163 72.7956 106.404C74.5556 104.644 75.574 102.282 75.574 99.7811V32.0277C75.574 29.527 74.6016 27.1651 72.7956 25.4052C71.0355 23.6454 68.6276 22.6729 66.1264 22.6729Z" fill="black"/>
<path d="M37.7927 60.9265C35.2919 60.9265 32.8837 61.8989 31.1239 63.6589C29.3641 65.419 28.3452 67.7809 28.3452 70.2815V108.905C28.3452 111.406 29.3178 113.768 31.1239 115.527C32.8837 117.287 35.2919 118.26 37.7927 118.26C40.2935 118.26 42.7017 117.287 44.4615 115.527C46.2213 113.768 47.2402 111.406 47.2402 108.905V70.2815C47.2402 67.7809 46.2677 65.419 44.4615 63.6589C42.7017 61.8989 40.2935 60.9265 37.7927 60.9265Z" fill="black"/>
<path d="M122.817 1.41675C121.566 1.41675 120.363 1.64831 119.205 2.11142C118.047 2.57453 117.028 3.2692 116.148 4.14911C115.268 5.02903 114.574 6.04788 114.111 7.20564C113.648 8.36346 113.37 9.56754 113.37 10.7716V121.918C113.37 124.42 114.342 126.782 116.148 128.541C117.908 130.301 120.316 131.273 122.817 131.273C125.318 131.273 127.726 130.301 129.486 128.541C131.246 126.782 132.265 124.42 132.265 121.918V10.7716C132.265 8.27082 131.292 5.90893 129.486 4.14911C127.726 2.38928 125.318 1.41675 122.817 1.41675Z" fill="black"/>
<path d="M94.472 60.9265C91.9709 60.9265 89.5629 61.8989 87.8029 63.6589C86.0428 65.419 85.0244 67.7809 85.0244 70.2815V108.905C85.0244 111.406 85.9968 113.768 87.8029 115.527C89.5629 117.287 91.9709 118.26 94.472 118.26C96.9726 118.26 99.3805 117.287 101.141 115.527C102.901 113.768 103.919 111.406 103.919 108.905V70.2815C103.919 67.7809 102.947 65.419 101.141 63.6589C99.3805 61.8989 96.9726 60.9265 94.472 60.9265Z" fill="black"/>
</svg>
